<svg width="128" height="128" viewBox="0 0 128 128" fill="none" xmlns="http://www.w3.org/2000/svg">
  <defs>
    <linearGradient id="mark" x1="24" y1="20" x2="108" y2="110" gradientUnits="userSpaceOnUse">
      <stop offset="0" stop-color="#42E8D4"/>
      <stop offset="0.54" stop-color="#0D9488"/>
      <stop offset="1" stop-color="#F5C451"/>
    </linearGradient>
    <linearGradient id="plate" x1="16" y1="14" x2="116" y2="118" gradientUnits="userSpaceOnUse">
      <stop offset="0" stop-color="#101827"/>
      <stop offset="1" stop-color="#05070C"/>
    </linearGradient>
  </defs>
  <rect x="8" y="8" width="112" height="112" rx="22" fill="url(#plate)"/>
  <rect x="8" y="8" width="112" height="112" rx="22" stroke="url(#mark)" stroke-width="5"/>
  <path d="M35 64C35 46.9 48.1 34 65.2 34C82.3 34 95 46.9 95 64C95 81.1 82.3 94 65.2 94C48.1 94 35 81.1 35 64ZM48.8 64C48.8 74.1 55.5 81.1 65.2 81.1C74.9 81.1 81.2 74.1 81.2 64C81.2 53.9 74.9 46.9 65.2 46.9C55.5 46.9 48.8 53.9 48.8 64Z" fill="url(#mark)"/>
  <path d="M62 33H96V46H76V57H93V70H76V95H62V33Z" fill="#F8FBFF"/>
  <path d="M87 24H103V40" stroke="#F5C451" stroke-width="5" stroke-linecap="round" stroke-linejoin="round"/>
  <path d="M25 88H41V104" stroke="#42E8D4" stroke-width="5" stroke-linecap="round" stroke-linejoin="round"/>
</svg>
